<?xml version="1.0" encoding="UTF-8"?>
<svg width="100%" height="100%" version="1.1" viewBox="0 0 64.029 95.779" xmlns="http://www.w3.org/2000/svg"><g transform="translate(-85.158 -137.23)"><rect x="85.423" y="137.49" width="63.5" height="95.25" rx="10.583" ry="10.583" fill="#fff" fill-rule="evenodd" stroke="#000" stroke-width=".52917"/><rect x="90.714" y="142.79" width="52.917" height="84.667" rx="5.2917" ry="5.2917" /><path d="m133.05 158.66c-23.38 0-42.333 18.953-42.333 42.333 0 5.845 4.7383 10.583 10.583 10.583 23.38 0 42.333-18.953 42.333-42.333 0-5.845-4.7383-10.583-10.583-10.583z" fill="#fff" fill-rule="evenodd"/><path d="m117.17 169.24c-5.845 0-10.583 4.7383-10.583 10.583v10.583c0 5.845 4.7383 10.583 10.583 10.583s10.583-4.7383 10.583-10.583v-10.583c0-5.845-4.7383-10.583-10.583-10.583zm0 5.2917c2.9225 0 5.2917 2.3692 5.2917 5.2917v10.583c0 2.9225-2.3692 5.2917-5.2917 5.2917s-5.2917-2.3692-5.2917-5.2917v-10.583c0-2.9225 2.3692-5.2917 5.2917-5.2917z" /><path d="m98.652 145.43c-2.9225 0-5.2917 2.3692-5.2917 5.2917v5.2917c0 2.9225 2.3692 5.2917 5.2917 5.2917 2.9225 0 5.2917-2.3692 5.2917-5.2917v-5.2917c0-2.9225-2.3692-5.2917-5.2917-5.2917zm0 2.6458c1.4613 0 2.6458 1.1846 2.6458 2.6458v5.2917c0 1.4612-1.1846 2.6458-2.6458 2.6458-1.4613 0-2.6458-1.1846-2.6458-2.6458v-5.2917c0-1.4612 1.1846-2.6458 2.6458-2.6458z" fill="#fff" fill-rule="evenodd"/><path d="m135.69 208.93c-2.9225 0-5.2917 2.3692-5.2917 5.2917v5.2917c0 2.9225 2.3692 5.2917 5.2917 5.2917 2.9225 0 5.2917-2.3692 5.2917-5.2917v-5.2917c0-2.9225-2.3692-5.2917-5.2917-5.2917zm0 2.6458c1.4612 0 2.6458 1.1846 2.6458 2.6458v5.2917c0 1.4612-1.1846 2.6458-2.6458 2.6458s-2.6458-1.1846-2.6458-2.6458v-5.2917c0-1.4612 1.1846-2.6458 2.6458-2.6458z" fill="#fff" fill-rule="evenodd"/></g></svg>
