<?xml version="1.0" encoding="UTF-8"?>
<svg width="100%" height="100%" version="1.1" viewBox="0 0 64.029 95.779" xmlns="http://www.w3.org/2000/svg"><g transform="translate(120.46 -26.104)"><rect x="-120.2" y="26.369" width="63.5" height="95.25" rx="10.583" ry="10.583" fill="#fff" fill-rule="evenodd" stroke="#000" stroke-width=".52917"/><rect x="-114.9" y="31.661" width="52.917" height="84.667" rx="5.2917" ry="5.2917" /><path d="m-72.571 47.536c-23.38 0-42.333 18.953-42.333 42.333 0 5.845 4.7383 10.583 10.583 10.583 23.38 0 42.333-18.953 42.333-42.333 0-5.845-4.7383-10.583-10.583-10.583z" fill="#fff" fill-rule="evenodd"/><path d="m-90.563 58.119-5.2917 5.2917v6.35l5.2917-5.2917v25.4h5.2917v-31.75z" /><path d="m-109.61 34.307-2.6458 2.6458v3.175l2.6458-2.6458v12.7h2.6458v-15.875z" fill="#fff" fill-rule="evenodd"/><path d="m-67.28 113.68 2.6458-2.6458v-3.175l-2.6458 2.6458v-12.7h-2.6458v15.875z" fill="#fff" fill-rule="evenodd"/></g></svg>
