<?xml version="1.0" encoding="UTF-8"?>
<svg width="100%" height="100%" version="1.1" viewBox="0 0 64.029 95.779" xmlns="http://www.w3.org/2000/svg"><g transform="translate(134.07 -26.86)"><rect x="-133.8" y="27.125" width="63.5" height="95.25" rx="10.583" ry="10.583" fill="#fff" fill-rule="evenodd" stroke="#000" stroke-width=".52917"/><rect x="-128.51" y="32.417" width="52.917" height="84.667" rx="5.2917" ry="5.2917" /><path d="m-86.179 48.292c-23.38 0-42.333 18.953-42.333 42.333 0 5.845 4.7383 10.583 10.583 10.583 23.38 0 42.333-18.953 42.333-42.333 0-5.845-4.7383-10.583-10.583-10.583z" fill="#fff" fill-rule="evenodd"/><path d="m-103.11 58.875c-5.8632 0-10.583 4.7202-10.583 10.583v1.0583h5.2917v-1.0583c0-2.9316 2.3601-5.2917 5.2917-5.2917 2.9316 0 5.2917 2.3601 5.2917 5.2917 0 1.1933-0.99008 3.535-2.024 4.3487-5.6143 4.4185-5.555 3.6888-13.851 9.4096v7.4083h21.167v-7.4083h-5.2917v2.1167h-9.525c6.5512-4.613 7.0302-4.5012 12.164-9.0951 1.6447-1.4719 2.6532-4.3932 2.6532-6.7799 0-5.8632-4.7202-10.583-10.583-10.583z" /><path d="m-120.57 35.062c-2.9316 0-5.2917 2.3601-5.2917 5.2917v0.52917h2.6458v-0.52917c0-1.4658 1.18-2.6458 2.6458-2.6458 1.4658 0 2.6458 1.18 2.6458 2.6458 0 0.59664-0.49505 1.7675-1.012 2.1744-2.8071 2.2092-2.7775 1.8444-6.9255 4.7048v3.7042h10.583v-3.7042h-2.6458v1.0583h-4.7625c3.2756-2.3065 3.5151-2.2506 6.0818-4.5475 0.82237-0.73594 1.3266-2.1966 1.3266-3.39 0-2.9316-2.3601-5.2917-5.2917-5.2917z" fill="#fff"/><path d="m-83.533 114.44c2.9316 0 5.2917-2.3601 5.2917-5.2917v-0.52917h-2.6458v0.52917c0 1.4658-1.18 2.6458-2.6458 2.6458-1.4658 0-2.6458-1.18-2.6458-2.6458 0-0.59664 0.49505-1.7675 1.012-2.1744 2.8071-2.2092 2.7775-1.8444 6.9255-4.7048v-3.7042h-10.583v3.7042h2.6458v-1.0583h4.7625c-3.2756 2.3065-3.5151 2.2506-6.0818 4.5475-0.82237 0.73594-1.3266 2.1966-1.3266 3.39 0 2.9316 2.3601 5.2917 5.2917 5.2917z" fill="#fff"/></g></svg>
