<?xml version="1.0" encoding="UTF-8"?>
<svg width="100%" height="100%" version="1.1" viewBox="0 0 64.029 95.779" xmlns="http://www.w3.org/2000/svg"><g transform="translate(338.18 52.515)"><rect x="-337.91" y="-52.25" width="63.5" height="95.25" rx="10.583" ry="10.583" fill="#fff" fill-rule="evenodd" stroke="#000" stroke-width=".52917"/><rect x="-332.62" y="-46.958" width="52.917" height="84.667" rx="5.2917" ry="5.2917" /><path d="m-290.29-31.083c-23.38 0-42.333 18.953-42.333 42.333 0 5.845 4.7383 10.583 10.583 10.583 23.38 0 42.333-18.953 42.333-42.333 0-5.845-4.7383-10.583-10.583-10.583z" fill="#fff" fill-rule="evenodd"/><path d="m-306.16-20.5c-4.3838 0-7.9375 3.5537-7.9375 7.9375h5.2917c0-1.4613 1.1846-2.6458 2.6458-2.6458 1.4612 0 2.6458 1.1846 2.6458 2.6458 0 1.4613-1.1846 2.6458-2.6458 2.6458h-3.175v5.2917h3.175c2.9316 0 5.2917 2.3601 5.2917 5.2917 0 2.9316-2.3601 5.2917-5.2917 5.2917-2.9316 0-5.2917-2.3601-5.2917-5.2917h-5.2917c0 5.8632 4.7202 10.583 10.583 10.583 5.8632 0 10.583-4.7202 10.583-10.583 0-3.4861-1.681-6.5406-4.2664-8.4667 1.0075-1.3307 1.6206-2.9647 1.6206-4.7625 0-4.3838-3.5537-7.9375-7.9375-7.9375z" /><path d="m-324.68-44.313c-2.1919 0-3.9688 1.7769-3.9688 3.9688h2.6458c0-0.73063 0.59229-1.3229 1.3229-1.3229s1.3229 0.59229 1.3229 1.3229c0 0.73062-0.5923 1.3229-1.3229 1.3229h-1.5875v2.6458h1.5875c1.4658 0 2.6458 1.18 2.6458 2.6458 0 1.4658-1.18 2.6458-2.6458 2.6458s-2.6458-1.18-2.6458-2.6458h-2.6458c0 2.9316 2.3601 5.2917 5.2917 5.2917 2.9316 0 5.2917-2.3601 5.2917-5.2917 0-1.743-0.84049-3.2703-2.1332-4.2333 0.50375-0.66537 0.81029-1.4824 0.81029-2.3812 0-2.1919-1.7769-3.9688-3.9688-3.9688z" fill="#fff"/><path d="m-287.64 35.062c2.1919 0 3.9688-1.7769 3.9688-3.9688h-2.6458c0 0.73063-0.5923 1.3229-1.3229 1.3229s-1.3229-0.59229-1.3229-1.3229c0-0.73062 0.5923-1.3229 1.3229-1.3229h1.5875v-2.6458h-1.5875c-1.4658 0-2.6458-1.18-2.6458-2.6458 0-1.4658 1.18-2.6458 2.6458-2.6458s2.6458 1.18 2.6458 2.6458h2.6458c0-2.9316-2.3601-5.2917-5.2917-5.2917s-5.2917 2.3601-5.2917 5.2917c0 1.743 0.84049 3.2703 2.1332 4.2333-0.50374 0.66537-0.81029 1.4824-0.81029 2.3812 0 2.1919 1.7769 3.9688 3.9688 3.9688z" fill="#fff"/></g></svg>
