<?xml version="1.0" encoding="UTF-8"?>
<svg width="100%" height="100%" version="1.1" viewBox="0 0 64.029 95.779" xmlns="http://www.w3.org/2000/svg"><g transform="translate(366.9 63.854)"><rect x="-366.64" y="-63.589" width="63.5" height="95.25" rx="10.583" ry="10.583" fill="#fff" fill-rule="evenodd" stroke="#000" stroke-width=".52917"/><rect x="-361.35" y="-58.298" width="52.917" height="84.667" rx="5.2917" ry="5.2917" /><path d="m-319.01-42.423c-23.38 0-42.333 18.953-42.333 42.333 0 5.845 4.7383 10.583 10.583 10.583 23.38 0 42.333-18.953 42.333-42.333 0-5.845-4.7383-10.583-10.583-10.583z" fill="#fff" fill-rule="evenodd"/><path d="m-336.16-31.839-10.372 21.167v5.2917h12.7v5.2917h5.2917v-5.2917h3.175v-5.2917h-3.175v-10.583h-5.2917v10.583h-7.1967l10.372-21.167z" /><path d="m-353.62-55.652-5.1858 10.583v2.6458h6.35v2.6458h2.6458v-2.6458h1.5875v-2.6458h-1.5875v-5.2917h-2.6458v5.2917h-3.5983l5.1858-10.583z" fill="#fff"/><path d="m-316.37 23.723 5.1858-10.583v-2.6458h-6.35v-2.6458h-2.6458v2.6458h-1.5875v2.6458h1.5875v5.2917h2.6458v-5.2917h3.5983l-5.1858 10.583z" fill="#fff"/></g></svg>
