<?xml version="1.0" encoding="UTF-8"?>
<svg width="100%" height="100%" version="1.1" viewBox="0 0 64.029 95.779" xmlns="http://www.w3.org/2000/svg"><g transform="translate(-116.91 -137.23)"><rect x="117.17" y="137.49" width="63.5" height="95.25" rx="10.583" ry="10.583" fill="#fff" fill-rule="evenodd" stroke="#000" stroke-width=".52917"/><rect x="122.46" y="142.79" width="52.917" height="84.667" rx="5.2917" ry="5.2917" /><path d="m164.8 158.66c-23.38 0-42.333 18.953-42.333 42.333 0 5.845 4.7383 10.583 10.583 10.583 23.38 0 42.333-18.953 42.333-42.333 0-5.845-4.7383-10.583-10.583-10.583z" fill="#fff" fill-rule="evenodd"/><path d="m139.4 169.24v15.875h10.583c2.9316 0 5.2917 2.3601 5.2917 5.2917s-2.3601 5.2917-5.2917 5.2917c-2.9316 0-5.2917-2.3601-5.2917-5.2917h-5.2917c0 5.8632 4.7202 10.583 10.583 10.583 5.8632 0 10.583-4.7202 10.583-10.583s-4.7202-10.583-10.583-10.583h-5.2917v-5.2917h14.817v-5.2917h-14.817z" /><path d="m125.11 145.43v7.9375h5.2917c1.4658 0 2.6458 1.18 2.6458 2.6458s-1.18 2.6458-2.6458 2.6458c-1.4658 0-2.6458-1.18-2.6458-2.6458h-2.6458c0 2.9316 2.3601 5.2917 5.2917 5.2917 2.9316 0 5.2917-2.3601 5.2917-5.2917 0-2.9316-2.3601-5.2917-5.2917-5.2917h-2.6458v-2.6458h7.4083v-2.6458h-7.4083z" fill="#fff"/><path d="m172.74 224.81v-7.9375h-5.2917c-1.4658 0-2.6458-1.18-2.6458-2.6458s1.18-2.6458 2.6458-2.6458 2.6458 1.18 2.6458 2.6458h2.6458c0-2.9316-2.3601-5.2917-5.2917-5.2917-2.9316 0-5.2917 2.3601-5.2917 5.2917s2.3601 5.2917 5.2917 5.2917h2.6458v2.6458h-7.4083v2.6458h7.4083z" fill="#fff"/></g></svg>
