<?xml version="1.0" encoding="UTF-8"?>
<svg width="100%" height="100%" version="1.1" viewBox="0 0 64.029 95.779" xmlns="http://www.w3.org/2000/svg"><g transform="translate(32.015 -66.17)"><rect x="-31.75" y="66.435" width="63.5" height="95.25" rx="10.583" ry="10.583" fill="#fff" fill-rule="evenodd" stroke="#000" stroke-width=".52917"/><rect x="-26.458" y="71.726" width="52.917" height="84.667" rx="5.2917" ry="5.2917" /><path d="m15.875 87.601c-23.38 0-42.333 18.953-42.333 42.333 0 5.845 4.7383 10.583 10.583 10.583 23.38 0 42.333-18.953 42.333-42.333 0-5.845-4.7383-10.583-10.583-10.583z" fill="#fff" fill-rule="evenodd"/><path d="m-3.1943e-7 98.185c-5.845 0-10.583 4.7383-10.583 10.583v10.583c0 5.845 4.7383 10.583 10.583 10.583 5.845 0 10.583-4.7383 10.583-10.583 0-5.845-4.7383-10.583-10.583-10.583-1.923 0-3.7376 0.52572-5.2917 1.4221v-1.4221c0-2.9225 2.3692-5.2917 5.2917-5.2917 2.0683 0 3.826 1.214 4.6964 2.9435l4.7625-2.3812c-1.7349-3.476-5.3099-5.8539-9.4589-5.8539zm0 15.875c2.9225 0 5.2917 2.3692 5.2917 5.2917 0 2.9225-2.3692 5.2917-5.2917 5.2917-2.9225 0-5.2917-2.3692-5.2917-5.2917 0-2.9225 2.3692-5.2917 5.2917-5.2917zm-5.2917 16.933v2.1167h10.583v-2.1167z" /><path d="m-18.521 74.372c-2.9225 0-5.2917 2.3692-5.2917 5.2917v5.2916c0 2.9225 2.3692 5.2917 5.2917 5.2917 2.9225 0 5.2917-2.3692 5.2917-5.2917 0-2.9225-2.3692-5.2916-5.2917-5.2916-0.9615 0-1.8688 0.26286-2.6458 0.71106v-0.71106c0-1.4613 1.1846-2.6458 2.6458-2.6458 1.0341 0 1.913 0.60696 2.3482 1.4717l2.3812-1.1906c-0.86743-1.738-2.655-2.927-4.7294-2.927zm0 7.9375c1.4612 0 2.6458 1.1846 2.6458 2.6458 0 1.4613-1.1846 2.6458-2.6458 2.6458-1.4613 0-2.6458-1.1846-2.6458-2.6458 0-1.4613 1.1846-2.6458 2.6458-2.6458z" fill="#fff" fill-rule="evenodd"/><path d="m18.521 153.75c2.9225 0 5.2917-2.3692 5.2917-5.2917v-5.2916c0-2.9225-2.3692-5.2917-5.2917-5.2917-2.9225 0-5.2917 2.3692-5.2917 5.2917 0 2.9225 2.3692 5.2916 5.2917 5.2916 0.9615 0 1.8688-0.26285 2.6458-0.71106v0.71106c0 1.4612-1.1846 2.6458-2.6458 2.6458-1.0341 0-1.913-0.60697-2.3482-1.4717l-2.3812 1.1906c0.86743 1.738 2.655 2.927 4.7294 2.927zm0-7.9375c-1.4612 0-2.6458-1.1846-2.6458-2.6458s1.1846-2.6458 2.6458-2.6458c1.4613 0 2.6458 1.1846 2.6458 2.6458s-1.1846 2.6458-2.6458 2.6458z" fill="#fff" fill-rule="evenodd"/></g></svg>
