<?xml version="1.0" encoding="UTF-8"?>
<svg width="100%" height="100%" version="1.1" viewBox="0 0 64.029 95.779" xmlns="http://www.w3.org/2000/svg"><g transform="translate(175.65 -14.765)" fill-rule="evenodd"><rect x="-175.38" y="15.03" width="63.5" height="95.25" rx="10.583" ry="10.583" fill="#fff" stroke="#000" stroke-width=".52917"/><rect x="-170.09" y="20.321" width="52.917" height="84.667" rx="5.2917" ry="5.2917"/><path d="m-127.76 36.196c-23.38 0-42.333 18.953-42.333 42.333 0 5.845 4.7383 10.583 10.583 10.583 23.38 0 42.333-18.953 42.333-42.333 0-5.845-4.7383-10.583-10.583-10.583z" fill="#fff"/><path d="m-152.63 46.78v10.583h5.2917v-5.2917h10.583l-10.583 26.458h5.2917l10.583-26.458v-5.2917h-15.875z"/><path d="m-167.44 22.967v5.2917h2.6458v-2.6458h5.2917l-5.2917 13.229h2.6458l5.2917-13.229v-2.6458h-7.9375z" fill="#fff"/><path d="m-119.82 102.34v-5.2917h-2.6458v2.6458h-5.2917l5.2917-13.229h-2.6458l-5.2917 13.229v2.6458h7.9375z" fill="#fff"/></g></svg>
