<?xml version="1.0" encoding="UTF-8"?>
<svg width="100%" height="100%" version="1.1" viewBox="0 0 64.029 95.779" xmlns="http://www.w3.org/2000/svg"><g transform="translate(44.866 28.324)"><rect x="-44.601" y="-28.06" width="63.5" height="95.25" rx="10.583" ry="10.583" fill="#fff" fill-rule="evenodd" stroke="#000" stroke-width=".52917"/><rect x="-39.31" y="-22.768" width="52.917" height="84.667" rx="5.2917" ry="5.2917" /><path d="m3.0238-6.8929c-23.38 0-42.333 18.953-42.333 42.333 0 5.845 4.7383 10.583 10.583 10.583 23.38 0 42.333-18.953 42.333-42.333 0-5.845-4.7383-10.583-10.583-10.583z" fill="#fff" fill-rule="evenodd"/><path d="m-12.851 3.6905c-4.3838 0-7.9375 3.5537-7.9375 7.9375 0 1.7978 0.6131 3.4318 1.6206 4.7625-2.5854 1.9261-4.2664 4.9805-4.2664 8.4667 0 5.8632 4.7202 10.583 10.583 10.583 5.8632 0 10.583-4.7202 10.583-10.583 0-3.4862-1.681-6.5406-4.2664-8.4667 1.0075-1.3307 1.6206-2.9647 1.6206-4.7625 0-4.3838-3.5537-7.9375-7.9375-7.9375zm0 5.2917c1.4613 0 2.6458 1.1846 2.6458 2.6458s-1.1846 2.6458-2.6458 2.6458c-1.4613 0-2.6458-1.1846-2.6458-2.6458s1.1846-2.6458 2.6458-2.6458zm-0.52917 10.583c0.17832-0.01799 0.34594 0 0.52917 0 2.9316 0 5.2917 2.3601 5.2917 5.2917 0 2.9316-2.3601 5.2917-5.2917 5.2917-2.9316 0-5.2917-2.3601-5.2917-5.2917 0-2.7484 2.0877-5.0217 4.7625-5.2917z" /><path d="m-31.372-20.122c-2.1919 0-3.9688 1.7768-3.9688 3.9688 0 0.8989 0.30655 1.7159 0.81028 2.3812-1.2927 0.96302-2.1332 2.4903-2.1332 4.2333 0 2.9316 2.3601 5.2917 5.2917 5.2917s5.2917-2.3601 5.2917-5.2917c0-1.7431-0.84049-3.2703-2.1332-4.2333 0.50375-0.66537 0.81029-1.4824 0.81029-2.3812 0-2.1919-1.7769-3.9688-3.9688-3.9688zm0 2.6458c0.73062 0 1.3229 0.5923 1.3229 1.3229 0 0.73061-0.5923 1.3229-1.3229 1.3229s-1.3229-0.59231-1.3229-1.3229c0-0.73062 0.5923-1.3229 1.3229-1.3229zm-0.26458 5.2917c0.08911-0.0095 0.17296 0 0.26458 0 1.4658 0 2.6458 1.18 2.6458 2.6458 0 1.4658-1.18 2.6458-2.6458 2.6458s-2.6458-1.18-2.6458-2.6458c0-1.3742 1.0438-2.5108 2.3812-2.6458z" fill="#fff"/><path d="m5.6696 59.253c-2.1919 0-3.9688-1.7768-3.9688-3.9688 0-0.8989 0.30655-1.7159 0.81028-2.3812-1.2927-0.96302-2.1332-2.4903-2.1332-4.2333 0-2.9316 2.3601-5.2917 5.2917-5.2917 2.9316 0 5.2917 2.3601 5.2917 5.2917 0 1.7431-0.84049 3.2703-2.1332 4.2333 0.50374 0.66537 0.81029 1.4824 0.81029 2.3812 0 2.1919-1.7769 3.9688-3.9688 3.9688zm0-2.6458c0.73062 0 1.3229-0.5923 1.3229-1.3229 0-0.73061-0.5923-1.3229-1.3229-1.3229-0.73062 0-1.3229 0.59231-1.3229 1.3229 0 0.73062 0.5923 1.3229 1.3229 1.3229zm-0.26458-5.2917c0.08911 0.0095 0.17296 0 0.26458 0 1.4658 0 2.6458-1.18 2.6458-2.6458 0-1.4658-1.18-2.6458-2.6458-2.6458-1.4658 0-2.6458 1.18-2.6458 2.6458 0 1.3742 1.0438 2.5108 2.3812 2.6458z" fill="#fff"/></g></svg>
