<?xml version="1.0" encoding="UTF-8"?>
<svg width="100%" height="100%" version="1.1" viewBox="0 0 64.029 95.779" xmlns="http://www.w3.org/2000/svg"><g transform="translate(183.21 -21.569)"><rect x="-182.94" y="21.833" width="63.5" height="95.25" rx="10.583" ry="10.583" fill="#fff" fill-rule="evenodd" stroke="#000" stroke-width=".52917"/><rect x="-177.65" y="27.125" width="52.917" height="84.667" rx="5.2917" ry="5.2917" /><path d="m-135.32 43c-23.38 0-42.333 18.953-42.333 42.333 0 5.845 4.7383 10.583 10.583 10.583 23.38 0 42.333-18.953 42.333-42.333 0-5.845-4.7383-10.583-10.583-10.583z" fill="#fff" fill-rule="evenodd"/><path d="m-151.19 53.583c-5.845 0-10.583 4.7383-10.583 10.583 0 5.845 4.7383 10.583 10.583 10.583 1.923 0 3.7376-0.52572 5.2917-1.4221v1.4221c0 2.9225-2.3692 5.2917-5.2917 5.2917-2.0682 0-3.826-1.214-4.6964-2.9435l-4.7625 2.3812c1.7349 3.4759 5.3099 5.8539 9.4588 5.8539 5.845 0 10.583-4.7383 10.583-10.583v-10.583c0-5.845-4.7383-10.583-10.583-10.583zm0 5.2917c2.9225 0 5.2917 2.3692 5.2917 5.2917 0 2.9225-2.3692 5.2917-5.2917 5.2917-2.9225 0-5.2917-2.3692-5.2917-5.2917 0-2.9225 2.3692-5.2917 5.2917-5.2917zm-5.2917 27.517v2.1167h10.583v-2.1167z" /><path d="m-169.71 45.646c2.9225 0 5.2917-2.3692 5.2917-5.2917v-5.2916c0-2.9225-2.3692-5.2917-5.2917-5.2917-2.9225 0-5.2917 2.3692-5.2917 5.2917 0 2.9225 2.3692 5.2916 5.2917 5.2916 0.9615 0 1.8688-0.26286 2.6458-0.71106v0.71106c0 1.4613-1.1846 2.6458-2.6458 2.6458-1.0341 0-1.913-0.60696-2.3482-1.4717l-2.3812 1.1906c0.86744 1.738 2.655 2.927 4.7294 2.927zm0-7.9375c-1.4612 0-2.6458-1.1846-2.6458-2.6458s1.1846-2.6458 2.6458-2.6458c1.4612 0 2.6458 1.1846 2.6458 2.6458s-1.1846 2.6458-2.6458 2.6458z" fill="#fff" fill-rule="evenodd"/><path d="m-132.67 93.271c-2.9225 0-5.2917 2.3692-5.2917 5.2917v5.2916c0 2.9225 2.3692 5.2917 5.2917 5.2917 2.9225 0 5.2917-2.3692 5.2917-5.2917 0-2.9225-2.3692-5.2916-5.2917-5.2916-0.9615 0-1.8688 0.26286-2.6458 0.71106v-0.71106c0-1.4613 1.1846-2.6458 2.6458-2.6458 1.0341 0 1.913 0.60696 2.3482 1.4717l2.3812-1.1906c-0.86743-1.738-2.655-2.927-4.7294-2.927zm0 7.9375c1.4612 0 2.6458 1.1846 2.6458 2.6458s-1.1846 2.6458-2.6458 2.6458c-1.4612 0-2.6458-1.1846-2.6458-2.6458s1.1846-2.6458 2.6458-2.6458z" fill="#fff" fill-rule="evenodd"/></g></svg>
