<?xml version="1.0" encoding="UTF-8"?>
<svg width="100%" height="100%" version="1.1" viewBox="0 0 242 362" xmlns="http://www.w3.org/2000/svg" xmlns:xlink="http://www.w3.org/1999/xlink"><defs><linearGradient id="linearGradient5884" x1="105.4" x2="106.48" y1="190.97" y2="253.13" gradientTransform="matrix(1.612 0 0 1.612 24.546 393.73)" gradientUnits="userSpaceOnUse"><stop offset="0"/><stop stop-opacity="0" offset="1"/></linearGradient></defs><g transform="translate(-349.12 -423.13)"><g fill-rule="evenodd"><rect transform="translate(1.5616e-6 4.7794e-6)" x="350.12" y="424.13" width="240" height="360" rx="40" ry="40" fill="#fff" stroke="#000" stroke-width="2"/><rect transform="translate(1.5616e-6 4.7794e-6)" x="370.12" y="444.13" width="200" height="320" rx="20" ry="20"/><path transform="translate(1.5616e-6 4.7794e-6)" d="m530.12 459.48c-88.366 0-160 102.99-160 230.04 0 31.761 17.909 57.509 40 57.509 88.366 0 160-102.99 160-230.04 0-31.761-17.909-57.509-40-57.509z" fill="#ff1f33"/></g><text transform="matrix(.8922 -.40337 .40422 .93808 0 0)" x="119.09487" y="751.81934" fill="#ffd300" font-family="sans-serif" font-weight="bold" letter-spacing="0px" stroke="url(#linearGradient5884)" stroke-width="1.612" word-spacing="0px" style="line-height:0%" xml:space="preserve"><tspan x="119.09487" y="751.81934" fill="#ffd300" font-size="64.479px" stroke="url(#linearGradient5884)" stroke-width="1.612" style="line-height:1.25"><tspan x="119.09487" y="751.81934" fill="#ffd300" font-family="sans-serif" font-size="64.479px" font-weight="bold" stroke="url(#linearGradient5884)" stroke-width="1.612" style="line-height:125%">UNO</tspan></tspan></text></g></svg>
