<?xml version="1.0" encoding="UTF-8"?>
<svg width="100%" height="100%" version="1.1" viewBox="0 0 64.029 95.779" xmlns="http://www.w3.org/2000/svg"><g transform="translate(-87.426 -98.676)"><rect x="87.69" y="98.94" width="63.5" height="95.25" rx="10.583" ry="10.583" fill="#fff" fill-rule="evenodd" stroke="#000" stroke-width=".52917"/><rect x="92.982" y="104.23" width="52.917" height="84.667" rx="5.2917" ry="5.2917" /><path d="m135.32 120.11c-23.38 0-42.333 18.953-42.333 42.333 0 5.845 4.7383 10.583 10.583 10.583 23.38 0 42.333-18.953 42.333-42.333 0-5.845-4.7383-10.583-10.583-10.583z" fill="#fff" fill-rule="evenodd"/><rect transform="matrix(1 0 -.27472 .96152 0 0)" x="149.22" y="144.18" width="15.875" height="24.765" rx="2.6458" ry="2.4848" fill="#fff" fill-rule="evenodd" stroke="#000" stroke-width=".53965"/><rect transform="matrix(1 0 -.27472 .96152 0 0)" x="151.87" y="146.93" width="10.583" height="19.262" rx="2.6458" ry="2.4847" /><rect transform="matrix(1 0 -.27472 .96152 0 0)" x="157.54" y="135.92" width="15.875" height="24.765" rx="2.6458" ry="2.4848" fill="#fff" fill-rule="evenodd" stroke="#000" stroke-width=".53965"/><rect transform="matrix(1 0 -.27472 .96152 0 0)" x="160.18" y="138.67" width="10.583" height="19.262" rx="2.6458" ry="2.4847"/><g fill="#fff"><path d="m96.686 112.17v2.6458h-2.6458v2.6458h2.6458v2.6459h2.6458v-2.6459h2.6458v-2.6458h-2.6458v-2.6458z" fill-rule="evenodd"/><path d="m108.86 106.88c-2.9316 0-5.2917 2.3601-5.2917 5.2917v0.52917h2.6458v-0.52917c0-1.4658 1.18-2.6458 2.6458-2.6458s2.6458 1.18 2.6458 2.6458c0 0.59663-0.49505 1.7675-1.012 2.1744-2.8071 2.2092-2.7775 1.8444-6.9255 4.7048v3.7042h10.583v-3.7042h-2.6458v1.0583h-4.7625c3.2756-2.3065 3.5151-2.2506 6.0818-4.5475 0.82237-0.73595 1.3266-2.1966 1.3266-3.39 0-2.9316-2.3601-5.2917-5.2917-5.2917z"/><path d="m142.19 180.96v-2.6458h2.6458v-2.6457h-2.6458v-2.6459h-2.6458v2.6459h-2.6458v2.6457h2.6458v2.6458z" fill-rule="evenodd"/><path d="m130.02 186.25c2.9316 0 5.2917-2.3601 5.2917-5.2917v-0.52916h-2.6458v0.52916c0 1.4658-1.18 2.6458-2.6458 2.6458s-2.6458-1.18-2.6458-2.6458c0-0.59658 0.49504-1.7674 1.012-2.1743 2.8071-2.2092 2.7775-1.8444 6.9255-4.7048v-3.7042h-10.583v3.7042h2.6458v-1.0583h4.7625c-3.2756 2.3065-3.5151 2.2506-6.0818 4.5476-0.82237 0.73596-1.3266 2.1966-1.3266 3.3899 0 2.9316 2.3601 5.2917 5.2917 5.2917z"/></g></g></svg>
