<?xml version="1.0" encoding="UTF-8"?>
<svg width="100%" height="100%" version="1.1" viewBox="0 0 64.029 95.779" xmlns="http://www.w3.org/2000/svg"><g transform="translate(-29.218 -131.18)"><rect x="29.482" y="131.45" width="63.5" height="95.25" rx="10.583" ry="10.583" fill="#fff" fill-rule="evenodd" stroke="#000" stroke-width=".52917"/><rect x="34.774" y="136.74" width="52.917" height="84.667" rx="5.2917" ry="5.2917" /><path d="m77.107 152.61c-23.38 0-42.333 18.953-42.333 42.333 0 5.845 4.7383 10.583 10.583 10.583 23.38 0 42.333-18.953 42.333-42.333 0-5.845-4.7383-10.583-10.583-10.583z" fill="#fff" fill-rule="evenodd"/><path d="m61.232 161.87 2.6458 2.6458-10.583 10.583c-2.6458 2.6458-2.6458 7.9375 0 10.583l15.875-15.875 2.6458 2.6458v-10.583z" /><path d="m61.232 196.27-2.6458-2.6458 10.583-10.583c2.6458-2.6458 2.6458-7.9375 0-10.583l-15.875 15.875-2.6458-2.6458v10.583z" /><g fill="#fff"><path d="m42.711 139.38 1.3229 1.3229-5.2917 5.2917c-1.3229 1.3229-1.3229 3.9688 0 5.2917l7.9375-7.9375 1.3229 1.3229v-5.2917z"/><path d="m42.711 156.58-1.3229-1.3229 5.2917-5.2917c1.3229-1.3229 1.3229-3.9688 0-5.2917l-7.9375 7.9375-1.3229-1.3229v5.2917z"/><path d="m79.753 201.56 1.3229 1.3229-5.2917 5.2917c-1.3229 1.3229-1.3229 3.9688 0 5.2917l7.9375-7.9375 1.3229 1.3229v-5.2917z"/><path d="m79.753 218.76-1.3229-1.3229 5.2917-5.2917c1.3229-1.3229 1.3229-3.9688 0-5.2917l-7.9375 7.9375-1.3229-1.3229v5.2917z"/></g></g></svg>
