<?xml version="1.0" encoding="UTF-8"?>
<svg width="100%" height="100%" version="1.1" viewBox="0 0 64.029 95.779" xmlns="http://www.w3.org/2000/svg"><g transform="translate(-99.521 -91.116)"><rect x="99.786" y="91.381" width="63.5" height="95.25" rx="10.583" ry="10.583" fill="#fff" fill-rule="evenodd" stroke="#000" stroke-width=".52917"/><rect x="105.08" y="96.673" width="52.917" height="84.667" rx="5.2917" ry="5.2917" /><path d="m147.41 112.55c-23.38 0-42.333 18.953-42.333 42.333 0 5.845 4.7383 10.583 10.583 10.583 23.38 0 42.333-18.953 42.333-42.333 0-5.845-4.7383-10.583-10.583-10.583z" fill="#fff" fill-rule="evenodd"/><path d="m131.57 123.13c-4.0628-5e-3 -8.141 1.5345-11.245 4.6302-6.2077 6.1915-6.2245 16.249-0.033 22.457 6.1915 6.2076 16.249 6.2245 22.457 0.033 6.2076-6.1915 6.2245-16.249 0.033-22.457-3.0958-3.1038-7.149-4.658-11.212-4.6633zm-0.033 5.2917c1.852 2e-3 3.7123 0.48693 5.3578 1.4552l-14.486 14.486c-2.3922-4.0617-1.8381-9.3826 1.6536-12.865 2.0692-2.0638 4.766-3.0793 7.4745-3.0758zm9.1281 5.1924c2.4087 4.0648 1.8451 9.4088-1.6536 12.898-3.4954 3.4862-8.8084 3.9987-12.865 1.5875z" /><path d="m115.68 99.318c-2.031-0.0032-4.0697 0.76717-5.6213 2.3149-3.1032 3.0954-3.1117 8.1237-0.0165 11.227 3.0952 3.1035 8.1229 3.112 11.226 0.0165 3.1032-3.0954 3.1117-8.1237 0.0165-11.227-1.5476-1.5518-3.5738-2.3288-5.6048-2.3314zm-0.0165 2.6456c0.9258 1e-3 1.8558 0.24343 2.6784 0.72752l-7.2416 7.2423c-1.1959-2.0306-0.9189-4.6909 0.82666-6.4321 1.0344-1.0318 2.3825-1.5395 3.7365-1.5377zm4.5632 2.596c1.2041 2.0322 0.92237 4.704-0.82668 6.4486-1.7474 1.743-4.4034 1.9992-6.4315 0.79368z" fill="#fff" fill-rule="evenodd"/><path d="m147.43 162.82c-2.031-3e-3 -4.0697 0.76717-5.6213 2.3149-3.1032 3.0954-3.1117 8.1237-0.0165 11.227 3.0952 3.1035 8.1229 3.112 11.226 0.0165 3.1032-3.0954 3.1117-8.1237 0.0165-11.227-1.5476-1.5518-3.5738-2.3288-5.6048-2.3314zm-0.0165 2.6456c0.9258 1e-3 1.8558 0.24343 2.6784 0.72752l-7.2416 7.2423c-1.1959-2.0306-0.9189-4.6909 0.82666-6.4321 1.0344-1.0318 2.3825-1.5395 3.7365-1.5377zm4.5632 2.596c1.2041 2.0322 0.92237 4.704-0.82668 6.4486-1.7474 1.743-4.4034 1.9992-6.4315 0.79368z" fill="#fff" fill-rule="evenodd"/></g></svg>
