<?xml version="1.0" encoding="UTF-8"?>
<svg width="100%" height="100%" version="1.1" viewBox="0 0 64.029 95.779" xmlns="http://www.w3.org/2000/svg"><g transform="translate(-88.938 -115.31)"><rect x="89.202" y="115.57" width="63.5" height="95.25" rx="10.583" ry="10.583" fill="#fff" fill-rule="evenodd" stroke="#000" stroke-width=".52917"/><rect x="94.494" y="120.86" width="52.917" height="84.667" rx="5.2917" ry="5.2917" fill-rule="evenodd"/><g fill="#fff"><path d="m136.83 136.74c-23.38 0-42.333 18.953-42.333 42.333 0 5.845 4.7383 10.583 10.583 10.583 23.38 0 42.333-18.953 42.333-42.333 0-5.845-4.7383-10.583-10.583-10.583z" fill-rule="evenodd"/><path d="m110.26 123.51-5.1858 10.583v2.6458h6.35v2.6458h2.6458v-2.6458h1.5875v-2.6458h-1.5875v-5.2917h-2.6458v5.2917h-3.5983l5.1858-10.583z"/><path d="m98.198 128.8v2.6459h-2.6458v2.6458h2.6458v2.6458h2.6458v-2.6458h2.6458v-2.6458h-2.6458v-2.6459z" fill-rule="evenodd"/><path d="m131.64 202.88 5.1858-10.583v-2.6458h-6.35v-2.6458h-2.6458v2.6458h-1.5875v2.6458h1.5875v5.2917h2.6458v-5.2917h3.5983l-5.1858 10.583z"/><path d="m143.71 197.59v-2.6458h2.6458v-2.6458h-2.6458v-2.6459h-2.6458v2.6459h-2.6458v2.6458h2.6458v2.6458z" fill-rule="evenodd"/><rect transform="matrix(1 0 -.27472 .96152 0 0)" x="151.33" y="155.97" width="15.875" height="24.765" rx="2.6458" ry="2.4848" fill-rule="evenodd" stroke="#000" stroke-width=".53965"/></g><g fill-rule="evenodd"><rect transform="matrix(1 0 -.27472 .96152 0 0)" x="153.97" y="158.72" width="10.583" height="19.262" rx="2.6458" ry="2.4847" fill="#f55"/><rect transform="matrix(1 0 -.27472 .96152 0 0)" x="159.64" y="147.71" width="15.875" height="24.765" rx="2.6458" ry="2.4848" fill="#fff" stroke="#000" stroke-width=".53965"/><rect transform="matrix(1 0 -.27472 .96152 0 0)" x="162.29" y="150.46" width="10.583" height="19.262" rx="2.6458" ry="2.4847" fill="#55f"/><rect transform="matrix(1 0 -.27472 .96152 0 0)" x="161.53" y="164.22" width="15.875" height="24.765" rx="2.6458" ry="2.4848" fill="#fff" stroke="#000" stroke-width=".53965"/><rect transform="matrix(1 0 -.27472 .96152 0 0)" x="164.18" y="166.98" width="10.583" height="19.262" rx="2.6458" ry="2.4847" fill="#fa0"/><rect transform="matrix(1 0 -.27472 .96152 0 0)" x="169.85" y="155.97" width="15.875" height="24.765" rx="2.6458" ry="2.4848" fill="#fff" stroke="#000" stroke-width=".53965"/><rect transform="matrix(1 0 -.27472 .96152 0 0)" x="172.49" y="158.72" width="10.583" height="19.262" rx="2.6458" ry="2.4847" fill="#5a5"/></g></g></svg>
