<?xml version="1.0" encoding="UTF-8"?>
<svg width="100%" height="100%" version="1.1" viewBox="0 0 64.029 95.779" xmlns="http://www.w3.org/2000/svg"><g transform="translate(-75.331 -119.84)"><g fill-rule="evenodd"><rect x="75.595" y="120.11" width="63.5" height="95.25" rx="10.583" ry="10.583" fill="#fff" stroke="#000" stroke-width=".52917"/><rect x="80.887" y="125.4" width="52.917" height="84.667" rx="5.2917" ry="5.2917"/><path d="m83.996 167.73c-1.9877 4.9059-3.1089 10.256-3.1089 15.875 0 5.845 4.7383 10.583 10.583 10.583l15.875-26.458z" fill="#fa0"/><path d="m107.35 167.73-15.875 26.458c17.761 0 32.941-10.951 39.224-26.458z" fill="#0a0"/><path d="m123.22 141.27c-17.761 0-32.941 10.951-39.224 26.458h23.349z" fill="#f55"/><path d="m123.22 141.27-15.875 26.458h23.349c1.9877-4.9059 3.1088-10.256 3.1088-15.875 0-5.845-4.7383-10.583-10.583-10.583z" fill="#55f"/><path d="m84.31 134.66c-0.49694 1.2265-0.77721 2.564-0.77721 3.9688 0 1.4612 1.1846 2.6458 2.6458 2.6458l3.9688-6.6146z" fill="#fa0"/><path d="m90.147 134.66-3.9688 6.6146c4.4403 0 8.2353-2.7377 9.8061-6.6146z" fill="#0a0"/><path d="m94.116 128.04c-4.4403 0-8.2353 2.7377-9.8061 6.6146h5.8374z" fill="#f55"/><path d="m94.116 128.04-3.9688 6.6146h5.8374c0.49694-1.2265 0.77721-2.564 0.77721-3.9688 0-1.4612-1.1846-2.6458-2.6458-2.6458z" fill="#55f"/><path d="m118.71 200.8c-0.49694 1.2265-0.77721 2.564-0.77721 3.9688 0 1.4613 1.1846 2.6458 2.6458 2.6458l3.9688-6.6146z" fill="#fa0"/><path d="m124.54 200.8-3.9688 6.6146c4.4403 0 8.2353-2.7377 9.8061-6.6146z" fill="#0a0"/><path d="m128.51 194.19c-4.4403 0-8.2353 2.7377-9.8061 6.6146h5.8374z" fill="#f55"/><path d="m128.51 194.19-3.9688 6.6146h5.8374c0.49694-1.2265 0.77722-2.564 0.77722-3.9688 0-1.4612-1.1846-2.6458-2.6458-2.6458z" fill="#55f"/></g><g fill="none" stroke="#fff" stroke-width="1.0583"><path d="m123.22 141.27c-17.761 0-32.941 10.951-39.224 26.458-1.9877 4.9059-3.1089 10.256-3.1089 15.875 0 5.845 4.7383 10.583 10.583 10.583 17.761 0 32.941-10.951 39.224-26.458 1.9877-4.9059 3.1088-10.256 3.1088-15.875 0-5.845-4.7383-10.583-10.583-10.583z"/><path d="m94.116 128.04c-4.4403 0-8.2353 2.7377-9.8061 6.6146-0.49694 1.2265-0.77721 2.564-0.77721 3.9688 0 1.4612 1.1846 2.6458 2.6458 2.6458 4.4403 0 8.2353-2.7377 9.8061-6.6146 0.49694-1.2265 0.77721-2.564 0.77721-3.9688 0-1.4613-1.1846-2.6458-2.6458-2.6458z"/><path d="m128.51 194.19c-4.4403 0-8.2353 2.7377-9.8061 6.6146-0.49694 1.2265-0.77721 2.564-0.77721 3.9688 0 1.4612 1.1846 2.6458 2.6458 2.6458 4.4403 0 8.2353-2.7377 9.8061-6.6146 0.49694-1.2265 0.77722-2.564 0.77722-3.9688 0-1.4612-1.1846-2.6458-2.6458-2.6458z"/></g></g></svg>
